<svg xmlns="http://www.w3.org/2000/svg" viewBox="0 0 800 500"><rect width="800" height="500" rx="32" fill="#fffaf0"/><text x="400" y="55" text-anchor="middle" font-family="Arial,sans-serif" font-size="26" font-weight="700" fill="#17304f">GRUPOS DE 2 E 3</text><g transform="translate(100 300)"><rect width="600" height="140" rx="10" fill="#fff" stroke="#17304f" stroke-width="5"/><path d="M50 0v140M100 0v140M150 0v140M200 0v140M250 0v140M300 0v140M350 0v140M400 0v140M450 0v140M500 0v140M550 0v140" stroke="#17304f" stroke-width="3"/><path d="M35 0v85h30V0M85 0v85h30V0M185 0v85h30V0M235 0v85h30V0M285 0v85h30V0M385 0v85h30V0M435 0v85h30V0M535 0v85h30V0" fill="#17304f"/></g><rect x="130" y="285" width="100" height="110" rx="18" fill="none" stroke="#f25591" stroke-width="8"/><rect x="280" y="285" width="150" height="110" rx="18" fill="none" stroke="#1686f5" stroke-width="8"/><text x="180" y="265" text-anchor="middle" font-family="Arial" font-size="30" font-weight="700" fill="#f25591">2</text><text x="355" y="265" text-anchor="middle" font-family="Arial" font-size="30" font-weight="700" fill="#1686f5">3</text></svg>